<?xml version="1.0" standalone="no"?>
<!DOCTYPE svg PUBLIC "-//W3C//DTD SVG 20010904//EN"
 "http://www.w3.org/TR/2001/REC-SVG-20010904/DTD/svg10.dtd">
<svg version="1.0" xmlns="http://www.w3.org/2000/svg"
 width="1440.000000pt" height="1440.000000pt" viewBox="0 0 1440.000000 1440.000000"
 preserveAspectRatio="xMidYMid meet">

<g transform="translate(0.000000,1440.000000) scale(0.100000,-0.100000)"
fill="#000000" stroke="none">
<path d="M8131 8917 c-49 -105 -151 -204 -263 -256 -45 -22 -112 -45 -148 -51
-36 -7 -75 -14 -87 -16 -52 -10 -17 -23 65 -26 l87 -3 2 -815 3 -814 -33 -36
c-19 -21 -22 -26 -6 -12 14 12 28 22 32 22 4 0 7 -108 7 -240 0 -238 0 -241
-23 -263 -13 -12 -16 -16 -7 -9 9 6 20 12 25 12 4 0 5 -84 2 -187 -6 -217 -1
-208 -108 -219 -48 -4 -69 -11 -69 -20 0 -16 133 -20 493 -16 189 2 237 5 237
16 0 8 -17 16 -44 19 -24 4 -55 12 -70 18 l-26 12 0 379 0 378 33 30 c17 16
26 30 20 30 -7 0 -18 -9 -25 -20 -7 -11 -16 -20 -20 -20 -5 0 -8 55 -8 123 l1
122 44 45 c24 24 42 47 39 50 -3 3 -23 -15 -44 -40 l-39 -45 -3 120 c-2 66 -1
179 2 250 3 72 3 240 0 373 -3 134 -3 245 -1 247 2 3 3 49 2 105 l-2 100 55
55 c31 30 56 57 56 60 0 12 -89 -70 -90 -82 0 -7 -6 -13 -12 -13 -10 0 -12 29
-10 120 3 96 6 120 18 120 8 0 14 4 14 9 0 5 -8 7 -17 5 -17 -5 -18 10 -15
225 3 216 2 231 -15 231 -12 0 -29 -23 -52 -73z"/>
<path d="M8396 8811 c-5 -7 9 -11 44 -11 60 0 140 -18 140 -32 0 -5 -18 -17
-40 -25 -37 -15 -54 -33 -30 -33 6 0 10 5 10 10 0 6 7 10 15 10 8 0 25 5 39
11 53 25 -3 59 -120 75 -34 4 -54 2 -58 -5z"/>
<path d="M8861 8811 c-10 -7 -10 -10 -1 -16 7 -4 15 -3 19 3 3 6 22 12 41 15
l35 4 -40 1 c-22 1 -46 -2 -54 -7z"/>
<path d="M9020 8797 c73 -38 100 -70 100 -120 0 -12 5 -29 11 -37 15 -22 0 58
-17 92 -15 30 -80 78 -104 78 -8 0 -4 -6 10 -13z"/>
<path d="M8310 8790 c-20 -6 -21 -8 -5 -8 11 0 29 3 40 8 25 11 -1 11 -35 0z"/>
<path d="M8710 8779 c-21 -7 -20 -8 10 -4 29 4 38 0 55 -23 11 -15 23 -49 26
-77 l6 -50 2 45 c1 34 -6 55 -24 83 -27 38 -33 41 -75 26z"/>
<path d="M8934 8768 c11 -17 18 -47 18 -85 1 -55 1 -56 10 -23 11 40 -3 100
-29 121 -15 12 -15 11 1 -13z"/>
<path d="M8610 8762 c0 -4 9 -13 21 -20 12 -8 18 -9 15 -3 -13 21 13 20 40 -2
l29 -22 -20 27 c-15 20 -29 27 -52 28 -18 0 -33 -3 -33 -8z"/>
<path d="M9155 8756 c17 -7 46 -29 64 -48 20 -22 40 -34 50 -31 18 4 124 -75
134 -99 4 -9 6 -9 6 -1 1 17 -100 103 -129 110 -14 3 -38 18 -55 33 -34 31
-67 50 -87 50 -7 -1 1 -7 17 -14z"/>
<path d="M8220 8750 c-8 -5 -10 -10 -5 -10 6 0 17 5 25 10 8 5 11 10 5 10 -5
0 -17 -5 -25 -10z"/>
<path d="M8664 8708 c3 -10 -2 -22 -12 -28 -16 -11 -16 -11 1 -6 14 4 17 -1
18 -32 l1 -37 10 31 c8 24 6 37 -7 60 -9 16 -14 21 -11 12z"/>
<path d="M8390 8680 c-26 -16 -4 -21 26 -5 23 12 25 15 9 15 -11 0 -27 -4 -35
-10z"/>
<path d="M8528 8583 c-24 -21 -45 -39 -47 -40 -2 -2 -2 -5 0 -8 3 -2 27 16 54
40 28 25 47 45 43 45 -5 0 -27 -17 -50 -37z"/>
<path d="M9133 8583 c0 -37 0 -38 9 -10 6 18 7 32 1 38 -5 5 -9 -6 -10 -28z"/>
<path d="M9275 8608 c4 -10 13 -57 20 -105 10 -74 13 -80 14 -40 1 52 -16 136
-31 152 -6 6 -7 4 -3 -7z"/>
<path d="M8283 8588 c-18 -13 -33 -27 -33 -31 0 -4 16 4 35 19 31 23 41 34 32
34 -1 0 -17 -10 -34 -22z"/>
<path d="M8792 8573 c-17 -57 -14 -76 4 -25 8 24 14 48 12 54 -2 6 -9 -7 -16
-29z"/>
<path d="M8656 8583 c-6 -14 -5 -15 5 -6 7 7 10 15 7 18 -3 3 -9 -2 -12 -12z"/>
<path d="M9118 8505 c-2 -19 0 -35 4 -35 4 0 8 16 8 35 0 19 -2 35 -4 35 -2 0
-6 -16 -8 -35z"/>
<path d="M9431 8508 c5 -18 10 -53 10 -78 1 -26 4 -35 6 -21 7 33 -6 131 -17
131 -5 0 -4 -15 1 -32z"/>
<path d="M8399 8483 c-36 -43 -40 -55 -9 -26 19 18 32 35 29 38 -3 3 -12 -3
-20 -12z"/>
<path d="M9486 8475 c24 -39 24 -40 24 -28 0 6 -9 21 -21 34 l-20 24 17 -30z"/>
<path d="M8580 8475 c-7 -9 -11 -18 -8 -20 3 -3 11 1 18 10 7 9 11 18 8 20 -3
3 -11 -1 -18 -10z"/>
<path d="M8704 8383 c-21 -36 -44 -74 -49 -83 -6 -10 -17 -25 -24 -34 -12 -14
-12 -16 2 -10 9 3 19 14 22 25 4 10 12 25 19 31 15 16 77 130 73 134 -2 2 -21
-26 -43 -63z"/>
<path d="M9097 8437 c-11 -29 -9 -43 4 -30 6 6 9 19 7 29 -3 18 -4 18 -11 1z"/>
<path d="M8971 8399 c-18 -22 -30 -43 -27 -46 6 -7 23 13 51 60 23 39 14 34
-24 -14z"/>
<path d="M8936 8415 c-9 -26 -7 -32 5 -12 6 10 9 21 6 23 -2 3 -7 -2 -11 -11z"/>
<path d="M9515 8405 c4 -17 11 -34 16 -39 5 -5 4 5 -1 24 -12 42 -24 55 -15
15z"/>
<path d="M8490 8365 c-19 -19 -30 -35 -24 -34 9 0 70 69 62 69 -2 0 -19 -16
-38 -35z"/>
<path d="M9081 8328 c-13 -16 -21 -31 -19 -33 2 -3 15 9 27 26 29 40 23 45 -8
7z"/>
<path d="M9272 8283 c-6 -20 -10 -39 -8 -41 2 -2 9 13 16 33 7 20 10 38 8 41
-3 2 -10 -13 -16 -33z"/>
<path d="M8838 8222 c-32 -36 -55 -68 -52 -71 6 -6 70 62 101 107 32 46 6 27
-49 -36z"/>
<path d="M9070 8275 c0 -2 10 -10 23 -16 20 -11 21 -11 8 4 -13 16 -31 23 -31
12z"/>
<path d="M9542 8255 c-1 -16 -4 -48 -7 -70 l-5 -40 11 33 c5 19 8 50 6 70 -3
33 -4 34 -5 7z"/>
<path d="M8348 8205 c-27 -25 -45 -45 -40 -45 7 0 92 79 92 86 0 8 -5 4 -52
-41z"/>
<path d="M9426 8215 c-9 -26 -7 -32 5 -12 6 10 9 21 6 23 -2 3 -7 -2 -11 -11z"/>
<path d="M8546 8178 c-20 -23 -34 -43 -31 -46 2 -2 16 10 31 28 15 18 34 38
42 46 7 8 9 14 3 14 -5 0 -26 -19 -45 -42z"/>
<path d="M9052 8192 c-13 -13 -21 -29 -19 -35 2 -6 14 4 26 22 28 39 24 46 -7
13z"/>
<path d="M9405 8169 c-4 -6 -5 -12 -2 -15 2 -3 7 2 10 11 7 17 1 20 -8 4z"/>
<path d="M9205 8149 c-4 -6 -5 -12 -2 -15 2 -3 7 2 10 11 7 17 1 20 -8 4z"/>
<path d="M8257 8114 c-10 -13 -14 -24 -9 -24 13 0 35 27 30 39 -1 5 -11 -2
-21 -15z"/>
<path d="M8480 8113 c0 -5 -28 -37 -61 -72 -33 -35 -58 -65 -56 -67 2 -2 34
26 70 62 59 60 68 65 83 53 16 -13 16 -12 3 9 -13 21 -39 31 -39 15z"/>
<path d="M8551 8097 c2 -1 15 -11 29 -22 l25 -20 -19 23 c-11 12 -24 22 -29
22 -6 0 -8 -1 -6 -3z"/>
<path d="M8949 8083 c-13 -16 -12 -17 4 -4 9 7 17 15 17 17 0 8 -8 3 -21 -13z"/>
<path d="M9141 8074 c-16 -37 -9 -39 11 -3 9 16 14 29 9 29 -4 0 -13 -12 -20
-26z"/>
<path d="M8696 8056 c-29 -39 -36 -61 -8 -30 47 54 54 64 45 64 -6 0 -22 -15
-37 -34z"/>
<path d="M9337 8037 l-18 -32 21 21 c13 12 21 27 19 33 -2 6 -12 -4 -22 -22z"/>
<path d="M8885 8020 c-3 -6 1 -7 9 -4 18 7 21 14 7 14 -6 0 -13 -4 -16 -10z"/>
<path d="M9465 7984 c-8 -20 -15 -39 -15 -41 0 -3 -16 -24 -35 -47 -37 -45
-42 -56 -25 -56 6 0 10 5 10 11 0 6 15 29 34 50 19 22 38 58 44 80 12 49 7 50
-13 3z"/>
<path d="M9069 7977 c-39 -49 -45 -65 -15 -37 28 25 51 59 44 65 -2 2 -15 -10
-29 -28z"/>
<path d="M8824 7948 l-29 -33 33 29 c30 28 37 36 29 36 -2 0 -16 -15 -33 -32z"/>
<path d="M9269 7943 c-38 -61 -42 -69 -19 -43 34 41 53 70 48 76 -3 3 -16 -12
-29 -33z"/>
<path d="M8310 7929 c0 -5 5 -7 10 -4 6 3 10 8 10 11 0 2 -4 4 -10 4 -5 0 -10
-5 -10 -11z"/>
<path d="M7525 7890 c-3 -10 -29 -42 -58 -70 -29 -28 -43 -48 -32 -44 18 6 17
4 -4 -19 -25 -27 -79 -39 -65 -14 6 10 4 10 -7 0 -8 -8 -40 -13 -81 -13 -54 0
-68 -3 -68 -15 0 -11 12 -15 50 -15 57 0 100 -16 101 -39 4 -51 -15 -75 -138
-174 -63 -51 -306 -197 -327 -197 -5 0 -7 -2 -4 -5 17 -18 281 143 382 232 82
73 104 87 88 56 -5 -10 -13 -35 -16 -57 -6 -30 -27 -58 -99 -135 -94 -98 -87
-100 10 -2 30 29 56 51 58 49 6 -5 -41 -137 -55 -153 -6 -8 -9 -19 -5 -25 4
-6 3 -10 -2 -9 -18 3 -27 -2 -16 -9 9 -6 -10 -74 -71 -257 -100 -297 -181
-528 -195 -552 -9 -16 -10 -16 -19 7 -45 119 -60 171 -55 191 4 19 2 21 -6 9
-8 -12 -11 -10 -19 10 -43 117 -52 141 -52 146 0 2 24 15 54 29 111 51 264
183 309 266 17 32 17 33 0 9 -36 -50 -129 -144 -190 -190 -60 -45 -168 -98
-179 -88 -6 7 -45 111 -41 113 1 1 37 16 80 35 42 18 76 34 74 36 -2 2 -35
-10 -73 -26 -38 -16 -74 -30 -81 -30 -6 0 -19 24 -29 53 -9 28 -19 57 -21 63
-2 6 34 25 82 43 48 18 84 35 82 37 -2 3 -41 -9 -87 -26 -46 -17 -84 -29 -86
-28 -3 4 -44 107 -44 113 0 2 28 13 63 24 75 24 137 50 118 51 -8 0 -42 -11
-75 -24 -112 -43 -109 -44 -134 24 l-21 59 37 11 c120 32 156 44 240 76 51 20
91 38 89 41 -3 2 -53 -14 -113 -37 -60 -22 -133 -47 -164 -54 -30 -7 -63 -17
-73 -21 -13 -6 -20 0 -31 27 -35 82 -34 83 36 101 72 18 149 45 132 46 -7 1
-40 -8 -75 -18 -35 -11 -78 -22 -95 -26 l-32 -6 -32 88 -31 88 30 27 c24 22
41 28 76 28 33 0 45 4 45 15 0 13 -47 15 -361 15 -284 0 -360 -3 -357 -12 3
-7 26 -16 51 -20 84 -12 126 -57 166 -179 20 -61 20 -68 6 -102 -14 -34 -19
-37 -58 -38 -23 -1 -53 -5 -67 -10 -16 -5 -1 -6 42 -2 l67 5 -8 -28 c-32 -104
-36 -109 -77 -109 -21 0 -42 -4 -46 -9 -3 -5 -27 -9 -52 -10 -25 -1 -46 -5
-46 -10 0 -8 49 -5 134 10 l38 7 -7 -34 c-14 -66 -33 -99 -57 -100 -17 -1 -18
-3 -5 -6 22 -6 22 -29 -4 -96 l-21 -54 -181 -7 c-99 -3 -183 -3 -187 1 -7 8
-50 120 -50 130 0 3 21 2 46 -2 54 -8 382 15 362 25 -7 4 -40 4 -73 -1 -33 -4
-123 -8 -201 -8 l-140 -1 -21 59 c-12 33 -19 61 -17 64 3 3 23 3 45 0 25 -4
39 -2 39 6 0 7 -19 11 -49 11 -52 0 -52 -1 -79 86 l-10 31 207 7 c113 4 222
11 241 15 25 7 15 8 -37 4 -40 -3 -150 -6 -245 -7 l-172 -1 -53 140 c-29 77
-52 148 -50 159 3 25 63 56 109 56 27 0 38 4 38 15 0 13 -48 15 -370 15 -322
0 -370 -2 -370 -15 0 -10 10 -15 34 -15 76 0 130 -41 178 -133 27 -54 28 -60
14 -76 -18 -19 -21 -51 -6 -51 5 0 7 6 5 13 -6 15 11 44 20 35 4 -4 8 -18 9
-32 0 -14 4 -26 9 -26 14 0 6 -25 -17 -54 l-24 -29 -11 22 c-7 12 -9 32 -6 44
5 20 5 20 -5 4 -8 -13 -9 -27 -1 -48 6 -17 8 -44 5 -62 -5 -31 -5 -31 14 8 24
50 59 84 67 64 24 -67 33 -99 28 -99 -3 0 -21 12 -40 26 -19 14 -37 24 -40 21
-3 -3 13 -17 36 -31 50 -32 60 -48 105 -161 50 -129 53 -145 27 -145 -12 0
-21 5 -21 10 0 6 -4 10 -10 10 -25 0 -6 -20 29 -31 37 -11 41 -17 65 -81 15
-38 24 -73 21 -78 -3 -5 0 -10 5 -12 6 -2 22 -34 36 -72 l25 -68 -26 6 c-14 3
-37 8 -52 11 -23 4 -22 3 7 -9 19 -8 44 -15 55 -15 16 -1 26 -16 44 -68 13
-38 26 -74 29 -82 4 -10 -2 -12 -24 -8 -68 14 -90 21 -102 36 -10 12 -12 13
-10 2 3 -8 11 -18 19 -22 27 -13 85 -29 106 -29 18 0 31 -28 96 -202 41 -112
96 -264 122 -338 26 -74 51 -139 55 -143 4 -5 22 33 39 85 17 51 70 204 117
341 l87 247 81 1 c44 1 95 5 111 9 17 4 -19 5 -79 2 -104 -5 -109 -4 -104 14
3 10 12 40 19 66 14 51 28 58 115 58 24 0 44 4 44 9 0 6 -29 7 -70 4 l-70 -6
22 64 c11 35 22 65 23 67 1 1 57 9 124 18 67 9 119 19 117 21 -5 5 -178 -15
-208 -23 -24 -7 -23 21 3 91 13 36 26 55 37 55 14 0 14 2 3 9 -12 8 -11 16 3
58 10 26 20 58 23 71 4 17 13 22 42 24 l36 1 -33 4 c-20 3 -32 9 -29 16 2 7
12 35 21 63 16 48 20 53 54 59 20 3 47 9 60 12 18 4 25 -1 36 -29 34 -81 33
-83 -31 -97 -81 -18 -87 -22 -23 -15 30 4 63 7 73 8 14 1 24 -13 38 -49 25
-67 25 -70 -18 -82 l-38 -11 45 4 45 5 21 -61 c19 -55 20 -61 5 -70 -14 -8
-13 -9 6 -10 17 0 25 -11 39 -55 9 -31 15 -57 13 -58 -12 -8 -109 -30 -219
-50 -93 -16 -115 -23 -86 -25 21 -2 50 1 65 7 14 6 46 13 71 16 25 3 70 12
100 20 82 23 84 22 104 -40 9 -30 18 -57 19 -61 2 -7 -61 -29 -118 -40 -26 -5
-33 -9 -20 -11 11 -2 49 5 83 16 l63 19 8 -21 c134 -360 144 -388 132 -413
-15 -35 -13 -44 4 -14 l13 25 12 -30 c7 -16 29 -79 51 -140 l38 -109 -24 -26
c-35 -37 -31 -49 5 -15 l30 29 0 -27 c0 -42 26 -33 43 16 57 159 163 463 242
697 212 626 341 985 370 1035 42 73 108 115 180 115 24 0 35 4 35 15 0 12 -16
15 -84 15 l-85 0 20 46 c12 25 18 48 15 51 -3 3 -15 -18 -27 -46 -19 -43 -27
-51 -48 -51 l-26 1 30 24 c17 14 24 25 18 25 -25 0 -13 19 31 50 25 18 46 42
49 56 5 29 -9 32 -18 4z m-1289 -565 c10 -30 15 -58 11 -61 -3 -4 -26 -9 -51
-11 l-45 -5 10 38 c6 22 15 43 20 49 5 5 9 17 9 27 0 40 30 16 46 -37z m-246
-413 c0 -4 -9 -36 -21 -70 l-20 -61 -134 -3 -134 -3 -24 65 -24 65 81 6 c133
9 276 10 276 1z m-53 -154 c-2 -7 -12 -39 -21 -70 l-17 -58 -82 0 -83 0 -22
63 c-12 34 -22 65 -22 70 0 4 57 7 126 7 97 0 125 -3 121 -12z m-52 -160 c-24
-83 -59 -178 -65 -178 -13 0 -20 44 -8 51 7 4 4 8 -7 10 -10 3 -25 24 -36 54
-35 93 -40 85 46 85 74 0 76 -1 70 -22z"/>
<path d="M8270 7885 c-13 -14 -19 -25 -14 -25 8 1 50 50 41 50 -2 0 -14 -11
-27 -25z"/>
<path d="M8499 7883 c-34 -41 -41 -53 -31 -53 5 0 19 16 31 35 22 38 22 45 0
18z"/>
<path d="M8749 7879 c-23 -19 -23 -20 -2 -10 12 6 25 16 28 21 10 16 -1 12
-26 -11z"/>
<path d="M8931 7823 c-22 -26 -41 -52 -41 -57 0 -5 1 -7 3 -5 2 2 23 25 47 52
23 26 41 50 38 53 -3 3 -24 -17 -47 -43z"/>
<path d="M8220 7830 c-8 -5 -12 -12 -9 -15 4 -3 12 1 19 10 14 17 11 19 -10 5z"/>
<path d="M9163 7814 c-12 -13 -18 -24 -14 -24 10 0 45 39 40 44 -2 3 -14 -6
-26 -20z"/>
<path d="M8689 7803 c-13 -16 -12 -17 4 -4 9 7 17 15 17 17 0 8 -8 3 -21 -13z"/>
<path d="M9340 7788 l-23 -33 28 27 c16 15 26 30 23 33 -3 4 -16 -9 -28 -27z"/>
<path d="M8620 7738 l-23 -33 28 27 c16 15 26 30 23 33 -3 4 -16 -9 -28 -27z"/>
<path d="M8364 7735 c-16 -14 -24 -25 -18 -25 6 0 21 11 34 25 30 32 21 32
-16 0z"/>
<path d="M8862 7720 c2 -10 20 -17 54 -21 92 -11 110 -33 77 -91 -16 -27 -209
-211 -532 -508 -69 -63 -145 -133 -169 -155 l-44 -40 87 -105 c48 -58 105
-126 126 -152 43 -52 47 -63 23 -72 -9 -4 -14 -9 -11 -13 4 -3 13 0 22 7 9 7
17 11 18 9 2 -2 25 -31 51 -63 l47 -59 -33 -36 c-31 -34 -32 -35 -2 -8 16 15
33 27 36 27 9 0 286 -346 307 -382 19 -32 14 -38 -42 -52 -102 -26 -49 -31
351 -34 319 -2 403 0 400 10 -3 7 -23 16 -46 20 -88 15 -135 51 -247 188 l-57
70 24 38 c36 53 70 123 64 129 -3 3 -11 -10 -19 -29 -8 -18 -28 -55 -44 -82
l-31 -49 -98 118 c-55 64 -143 169 -197 232 -54 64 -96 122 -93 129 3 7 0 11
-7 8 -7 -2 -53 44 -102 102 -151 179 -140 162 -121 183 23 26 20 37 -5 15 -21
-19 -21 -18 -60 26 -21 25 -39 48 -39 52 0 3 33 34 73 68 39 34 99 88 132 120
33 31 80 72 105 91 25 19 61 50 80 68 82 78 289 196 366 208 32 5 36 4 31 -11
-4 -10 -3 -15 3 -11 6 3 10 13 10 21 0 10 12 14 40 14 29 0 40 4 40 15 0 12
-42 15 -285 17 -249 3 -285 1 -283 -12z"/>
<path d="M7125 7651 c-44 -21 -98 -44 -120 -51 -22 -7 -35 -15 -29 -17 7 -2
54 15 105 37 52 23 102 44 112 47 9 3 17 9 17 14 0 5 -1 9 -2 8 -2 0 -39 -18
-83 -38z"/>
<path d="M7281 7639 c-44 -51 -31 -50 19 1 22 22 34 40 27 39 -7 0 -27 -18
-46 -40z"/>
<path d="M8764 7648 l-29 -33 33 29 c30 28 37 36 29 36 -2 0 -16 -15 -33 -32z"/>
<path d="M8243 7614 c-34 -35 -39 -44 -24 -44 9 0 65 69 60 74 -2 2 -19 -12
-36 -30z"/>
<path d="M8471 7595 c-37 -40 -47 -55 -38 -55 2 0 25 23 51 50 26 28 43 50 38
50 -5 0 -28 -20 -51 -45z"/>
<path d="M9256 7559 c-26 -39 -45 -73 -44 -75 2 -1 25 29 52 67 26 39 46 72
44 75 -3 2 -26 -28 -52 -67z"/>
<path d="M7193 7571 c-21 -15 -66 -42 -99 -60 -32 -17 -54 -31 -47 -31 19 0
193 104 193 116 0 8 -7 4 -47 -25z"/>
<path d="M6870 7554 c-80 -29 -93 -36 -57 -29 37 7 156 54 137 53 -8 0 -44
-11 -80 -24z"/>
<path d="M8389 7503 c-13 -16 -12 -17 4 -4 16 13 21 21 13 21 -2 0 -10 -8 -17
-17z"/>
<path d="M8590 7482 c0 -4 -22 -31 -50 -60 -69 -72 -48 -66 25 8 40 40 54 60
42 60 -9 0 -17 -4 -17 -8z"/>
<path d="M9162 7428 c-6 -13 -21 -39 -33 -58 -21 -34 -21 -34 0 -10 30 36 62
90 52 90 -4 0 -13 -10 -19 -22z"/>
<path d="M8940 7419 c14 -6 34 -15 45 -20 11 -4 36 -18 54 -31 19 -12 32 -17
28 -11 -11 17 -90 61 -123 68 -28 5 -29 5 -4 -6z"/>
<path d="M8263 7379 c-18 -16 -33 -33 -33 -36 0 -4 16 8 35 27 32 31 39 40 33
40 -2 0 -18 -14 -35 -31z"/>
<path d="M8901 7394 c0 -11 3 -14 6 -6 3 7 2 16 -1 19 -3 4 -6 -2 -5 -13z"/>
<path d="M8420 7295 c-19 -19 -30 -35 -24 -35 11 0 67 61 61 66 -2 2 -19 -12
-37 -31z"/>
<path d="M9129 7296 c19 -19 37 -34 39 -31 7 7 -28 45 -53 57 -12 7 -7 -3 14
-26z"/>
<path d="M8919 7305 c18 -8 38 -15 45 -15 6 1 -4 7 -23 15 -18 8 -38 15 -45
15 -6 -1 4 -7 23 -15z"/>
<path d="M8852 7275 c-7 -8 -9 -15 -4 -15 5 0 15 7 22 15 16 19 -1 19 -18 0z"/>
<path d="M9045 7255 c84 -45 127 -75 179 -129 33 -34 36 -36 18 -9 -12 17 -22
42 -22 55 0 17 -3 19 -9 9 -7 -11 -18 -7 -57 20 -58 40 -122 74 -155 83 -13 4
8 -9 46 -29z"/>
<path d="M4988 7236 c17 -29 18 -37 7 -46 -10 -8 -12 -35 -10 -103 2 -51 4
-99 3 -107 -3 -93 0 -121 17 -140 12 -14 15 -23 8 -32 -52 -66 26 -196 159
-264 26 -13 53 -24 60 -23 7 0 -11 11 -40 24 -108 50 -197 154 -185 218 8 41
19 42 71 4 27 -19 59 -40 73 -46 20 -10 21 -9 5 1 -106 73 -166 147 -166 204
0 47 14 59 34 30 9 -14 22 -26 28 -26 7 0 -1 14 -17 30 -27 28 -28 33 -16 53
13 20 13 21 -1 9 -19 -15 -28 2 -28 50 0 33 19 34 34 2 5 -12 17 -25 26 -30
10 -5 32 -17 49 -27 44 -25 39 -15 -9 17 -22 14 -40 30 -40 34 0 4 18 20 40
35 22 16 40 31 40 35 0 4 -21 18 -47 32 -56 30 -62 42 -28 60 14 7 23 15 21
18 -3 2 -18 -5 -35 -17 l-30 -22 -16 31 c-8 16 -18 30 -21 30 -3 0 3 -15 14
-34z m86 -72 l47 -26 -41 -30 c-39 -29 -42 -30 -60 -13 -20 18 -25 49 -14 79
8 21 14 20 68 -10z"/>
<path d="M7063 7235 c-56 -37 -73 -58 -23 -28 33 19 88 62 80 62 -3 0 -29 -15
-57 -34z"/>
<path d="M8720 7240 c8 -5 20 -10 25 -10 6 0 3 5 -5 10 -8 5 -19 10 -25 10 -5
0 -3 -5 5 -10z"/>
<path d="M8337 7215 c-10 -14 -14 -25 -9 -25 10 0 42 33 42 43 0 14 -16 5 -33
-18z"/>
<path d="M7183 7192 c-43 -43 -123 -105 -185 -145 -64 -40 -80 -62 -20 -26 93
56 268 199 243 199 -6 0 -23 -13 -38 -28z"/>
<path d="M8895 7210 c3 -5 11 -10 16 -10 6 0 7 5 4 10 -3 6 -11 10 -16 10 -6
0 -7 -4 -4 -10z"/>
<path d="M5695 7200 c-26 -11 90 -11 160 0 44 6 38 7 -45 8 -52 0 -104 -3
-115 -8z"/>
<path d="M7763 7198 c-19 -25 -24 -38 -14 -38 11 0 35 39 28 46 -2 3 -9 -1
-14 -8z"/>
<path d="M8748 7169 c-21 -23 -38 -46 -38 -52 0 -12 52 45 70 76 16 26 8 21
-32 -24z"/>
<path d="M8960 7185 c19 -7 42 -13 50 -13 8 0 -1 6 -20 13 -19 7 -42 13 -50
13 -8 0 1 -6 20 -13z"/>
<path d="M6920 7154 l-25 -15 25 7 c28 7 35 12 29 18 -2 2 -15 -2 -29 -10z"/>
<path d="M9030 7162 c0 -11 60 -35 68 -27 3 2 -8 9 -23 15 -15 6 -32 13 -36
16 -5 3 -9 1 -9 -4z"/>
<path d="M7706 7091 c-15 -28 -24 -51 -22 -51 7 0 57 93 52 98 -3 2 -16 -19
-30 -47z"/>
<path d="M9110 7126 c0 -2 21 -16 46 -30 27 -15 41 -19 33 -10 -18 22 -79 53
-79 40z"/>
<path d="M9267 7064 c5 -13 2 -15 -18 -10 l-24 6 23 -11 c12 -7 22 -18 22 -26
0 -7 6 -16 14 -19 8 -3 17 -16 20 -29 4 -15 11 -22 19 -19 18 7 37 -38 37 -86
0 -42 -24 -90 -77 -156 -18 -23 -33 -44 -33 -48 0 -14 71 77 93 118 l22 41 6
-45 c4 -26 5 -6 3 47 -1 51 -8 101 -13 112 -6 11 -11 29 -11 40 0 13 -6 21
-17 21 -15 0 -16 -2 -3 -10 13 -9 13 -10 0 -10 -9 0 -24 19 -35 45 -17 42 -43
78 -28 39z"/>
<path d="M8880 7018 l-23 -33 28 27 c16 15 26 30 23 33 -3 4 -16 -9 -28 -27z"/>
<path d="M9185 7010 c-14 -7 -8 -8 20 -3 22 3 42 7 44 9 9 8 -45 2 -64 -6z"/>
<path d="M9135 6990 c-3 -6 1 -7 9 -4 18 7 21 14 7 14 -6 0 -13 -4 -16 -10z"/>
<path d="M7627 6945 c-9 -19 -15 -35 -12 -35 7 0 37 61 33 66 -3 2 -12 -12
-21 -31z"/>
<path d="M6170 6960 c-16 -6 -6 -7 30 -3 30 3 57 7 59 9 8 7 -64 2 -89 -6z"/>
<path d="M8987 6870 c-89 -91 -77 -91 14 0 39 39 67 70 63 70 -5 0 -40 -32
-77 -70z"/>
<path d="M8770 6915 c-7 -9 -8 -15 -2 -15 5 0 12 7 16 15 3 8 4 15 2 15 -2 0
-9 -7 -16 -15z"/>
<path d="M5081 6904 c13 -16 62 -44 76 -44 4 0 -6 9 -23 19 -18 11 -35 24 -38
30 -4 6 -12 11 -18 11 -6 0 -5 -6 3 -16z"/>
<path d="M9297 6895 c-4 -8 -22 -23 -42 -32 -19 -9 -35 -20 -35 -25 0 -13 80
31 87 48 3 8 3 17 0 20 -2 3 -7 -2 -10 -11z"/>
<path d="M5210 6840 c0 -12 28 -25 36 -17 3 3 -4 10 -15 17 -15 7 -21 7 -21 0z"/>
<path d="M7562 6818 c-10 -30 -10 -31 3 -14 13 17 21 46 12 46 -1 0 -8 -15
-15 -32z"/>
<path d="M6280 6827 c-27 -7 -37 -12 -25 -14 11 -2 43 3 70 11 59 17 22 19
-45 3z"/>
<path d="M9402 6820 c7 -10 14 -18 15 -16 6 6 -9 36 -18 36 -5 0 -4 -9 3 -20z"/>
<path d="M9113 6736 c-40 -51 -73 -84 -81 -81 -7 3 -10 0 -7 -5 11 -19 23 -10
78 59 31 37 63 76 72 85 10 9 15 19 12 22 -3 3 -36 -33 -74 -80z"/>
<path d="M7600 6745 c-29 -30 -52 -57 -49 -59 2 -2 28 22 57 55 29 32 52 59
50 59 -2 0 -28 -25 -58 -55z"/>
<path d="M9423 6720 c0 -41 2 -58 4 -37 2 20 2 54 0 75 -2 20 -4 3 -4 -38z"/>
<path d="M7523 6748 c-22 -38 -34 -68 -28 -68 3 0 16 23 30 50 28 56 27 67 -2
18z"/>
<path d="M8355 6710 c-3 -5 -1 -10 4 -10 6 0 11 5 11 10 0 6 -2 10 -4 10 -3 0
-8 -4 -11 -10z"/>
<path d="M9351 6659 c-6 -18 -9 -34 -7 -36 2 -2 9 10 15 28 6 18 9 34 7 36 -2
2 -9 -10 -15 -28z"/>
<path d="M7757 6662 c-10 -10 -17 -22 -17 -27 0 -5 9 1 21 14 12 12 19 24 17
27 -3 2 -12 -4 -21 -14z"/>
<path d="M9206 6637 c-4 -16 -24 -47 -44 -70 -61 -68 -69 -85 -18 -37 46 43
80 102 73 124 -2 6 -7 -2 -11 -17z"/>
<path d="M8278 6628 c3 -14 7 -16 18 -7 19 16 17 25 -5 25 -12 0 -17 -6 -13
-18z"/>
<path d="M7427 6604 c-10 -13 -14 -24 -9 -24 13 0 35 27 30 39 -1 5 -11 -2
-21 -15z"/>
<path d="M9406 6569 c-3 -18 -4 -34 -2 -36 2 -3 7 10 11 27 4 17 5 34 2 36 -2
3 -7 -10 -11 -27z"/>
<path d="M7680 6579 c0 -5 5 -7 10 -4 6 3 10 8 10 11 0 2 -4 4 -10 4 -5 0 -10
-5 -10 -11z"/>
<path d="M8219 6563 c-13 -16 -12 -17 4 -4 9 7 17 15 17 17 0 8 -8 3 -21 -13z"/>
<path d="M9300 6543 c-11 -21 -41 -67 -67 -103 -26 -36 -39 -58 -29 -50 31 24
137 190 121 190 -2 0 -14 -17 -25 -37z"/>
<path d="M6270 6530 c-20 -6 -21 -8 -5 -8 11 0 31 4 45 8 20 6 21 8 5 8 -11 0
-31 -4 -45 -8z"/>
<path d="M6150 6510 c-34 -7 -34 -7 -5 -8 17 0 44 4 60 8 27 7 27 8 5 8 -14
-1 -41 -4 -60 -8z"/>
<path d="M7602 6497 c-12 -13 -22 -27 -22 -33 0 -5 12 4 26 19 14 16 24 30 22
33 -3 2 -14 -6 -26 -19z"/>
<path d="M7313 6476 c-4 -8 -25 -32 -45 -55 -21 -22 -34 -42 -30 -44 4 -1 31
23 61 55 35 38 49 58 38 58 -9 0 -20 -6 -24 -14z"/>
<path d="M8354 6436 c-10 -8 -16 -17 -13 -20 3 -3 14 3 24 14 21 23 17 26 -11
6z"/>
<path d="M8315 6399 c-4 -6 -5 -12 -2 -15 2 -3 7 2 10 11 7 17 1 20 -8 4z"/>
<path d="M7490 6385 c-8 -9 -8 -15 -2 -15 12 0 26 19 19 26 -2 2 -10 -2 -17
-11z"/>
<path d="M7439 6333 l-24 -28 28 24 c15 14 27 26 27 28 0 8 -8 1 -31 -24z"/>
<path d="M8255 6330 c-16 -16 -26 -30 -23 -30 4 0 20 14 36 30 17 17 27 30 23
30 -4 0 -20 -13 -36 -30z"/>
<path d="M7127 6266 c-31 -36 -57 -70 -57 -78 0 -12 39 28 97 100 47 60 17 43
-40 -22z"/>
<path d="M8451 6299 c-13 -11 -22 -21 -20 -23 2 -3 15 4 28 15 13 11 22 21 20
23 -2 3 -15 -4 -28 -15z"/>
<path d="M7369 6264 c-21 -24 -22 -26 -3 -16 25 13 50 42 37 42 -5 0 -20 -12
-34 -26z"/>
<path d="M8672 6232 c-28 -26 -52 -53 -52 -60 0 -12 65 47 99 91 21 27 10 20
-47 -31z"/>
<path d="M7583 6227 c-35 -39 -37 -53 -2 -20 18 18 31 35 28 38 -3 3 -15 -5
-26 -18z"/>
<path d="M8340 6177 c-30 -29 -64 -63 -75 -77 -11 -14 12 4 50 39 60 55 94 92
83 91 -2 -1 -28 -24 -58 -53z"/>
<path d="M7275 6159 c-11 -17 1 -21 15 -4 8 9 8 15 2 15 -6 0 -14 -5 -17 -11z"/>
<path d="M8764 6113 c-26 -32 -55 -67 -63 -77 -9 -10 -11 -17 -4 -15 11 4 123
136 123 145 0 10 -11 0 -56 -53z"/>
<path d="M7481 6129 c-19 -16 -33 -31 -30 -33 2 -2 19 9 37 26 44 38 37 45 -7
7z"/>
<path d="M6999 6123 c-14 -16 -31 -37 -39 -48 l-15 -20 24 20 c23 20 66 75 59
75 -3 0 -15 -12 -29 -27z"/>
<path d="M7230 6108 c-12 -22 -12 -22 6 -6 10 10 15 20 12 24 -4 3 -12 -5 -18
-18z"/>
<path d="M8538 6088 c-33 -36 -46 -58 -35 -58 2 0 24 23 49 50 25 28 41 50 35
50 -5 0 -27 -19 -49 -42z"/>
<path d="M7166 6042 l-30 -37 37 34 c38 36 42 42 30 40 -5 0 -21 -17 -37 -37z"/>
<path d="M7675 6058 l-20 -21 23 12 c12 6 22 16 22 21 0 13 -2 12 -25 -12z"/>
<path d="M6892 6010 c-18 -30 -14 -36 8 -12 21 22 25 32 12 32 -4 0 -13 -9
-20 -20z"/>
<path d="M8450 6010 c-24 -24 -26 -40 -5 -40 8 0 21 14 30 30 18 34 5 40 -25
10z"/>
<path d="M7335 5974 c-15 -19 -25 -37 -24 -39 2 -2 17 14 32 36 35 49 29 52
-8 3z"/>
<path d="M6555 5970 c-9 -16 -13 -30 -11 -30 3 0 12 14 21 30 9 17 13 30 11
30 -3 0 -12 -13 -21 -30z"/>
<path d="M6524 5918 c-4 -7 -14 -24 -22 -38 -14 -24 -13 -24 3 -5 20 24 37 55
31 55 -3 0 -8 -6 -12 -12z"/>
<path d="M7278 5913 c-29 -34 -31 -48 -3 -20 15 15 26 30 23 32 -3 3 -12 -3
-20 -12z"/>
<path d="M7519 5913 c-13 -16 -12 -17 4 -4 9 7 17 15 17 17 0 8 -8 3 -21 -13z"/>
<path d="M7680 5835 c-24 -25 -42 -47 -39 -50 3 -2 25 15 49 40 24 25 42 47
39 50 -3 2 -25 -15 -49 -40z"/>
<path d="M6953 5821 c-21 -21 -45 -41 -53 -44 -13 -5 -13 -6 0 -6 9 -1 36 19
60 44 24 25 41 45 37 45 -3 0 -23 -17 -44 -39z"/>
<path d="M7426 5819 c-39 -43 -27 -46 14 -4 19 19 29 35 24 35 -6 0 -23 -14
-38 -31z"/>
<path d="M7174 5818 c-11 -13 -28 -34 -39 -48 -16 -21 -14 -20 14 5 29 27 58
65 48 65 -2 0 -12 -10 -23 -22z"/>
<path d="M6429 5759 c-16 -34 -29 -63 -27 -65 2 -2 18 26 36 61 17 36 30 65
27 65 -3 0 -19 -27 -36 -61z"/>
<path d="M6718 5745 c-31 -30 -53 -55 -49 -55 4 0 31 25 61 55 70 71 62 71
-12 0z"/>
<path d="M6634 5739 c-19 -22 -19 -22 4 -8 12 8 22 17 22 21 0 12 -6 9 -26
-13z"/>
<path d="M6857 5735 c-15 -14 -24 -25 -19 -25 5 0 19 11 32 25 30 32 23 32
-13 0z"/>
<path d="M7344 5738 l-19 -23 23 19 c21 18 27 26 19 26 -2 0 -12 -10 -23 -22z"/>
<path d="M7528 5693 c-29 -34 -30 -48 -2 -21 15 15 26 30 23 33 -3 3 -13 -3
-21 -12z"/>
<path d="M6554 5677 c-41 -29 -96 -78 -114 -102 -8 -11 10 3 41 30 30 28 68
60 84 72 39 29 29 29 -11 0z"/>
<path d="M7020 5655 c-44 -45 -30 -45 18 0 20 19 32 35 26 35 -5 0 -25 -16
-44 -35z"/>
<path d="M6392 5655 c0 -16 2 -22 5 -12 2 9 2 23 0 30 -3 6 -5 -1 -5 -18z"/>
<path d="M6570 5586 l-65 -71 65 60 c65 60 88 86 73 84 -4 -1 -37 -33 -73 -73z"/>
<path d="M6690 5589 l-45 -40 48 33 c49 33 65 48 50 48 -4 0 -28 -18 -53 -41z"/>
<path d="M7210 5615 c0 -8 4 -15 10 -15 5 0 7 7 4 15 -4 8 -8 15 -10 15 -2 0
-4 -7 -4 -15z"/>
<path d="M7435 5600 c-16 -16 -26 -32 -24 -35 3 -3 18 9 34 25 16 16 26 32 24
35 -3 3 -18 -9 -34 -25z"/>
<path d="M6360 5532 c0 -30 4 -52 11 -52 7 0 8 16 3 48 -9 64 -14 66 -14 4z"/>
<path d="M6902 5549 c-24 -17 -41 -33 -38 -36 5 -5 86 54 86 63 0 6 -2 5 -48
-27z"/>
<path d="M7090 5498 c-30 -28 -41 -42 -25 -30 28 19 94 83 84 82 -2 -1 -29
-24 -59 -52z"/>
<path d="M6545 5510 c-54 -25 -72 -26 -54 -2 12 16 12 16 -6 0 -10 -10 -16
-20 -12 -24 9 -9 96 18 109 33 13 16 12 16 -37 -7z"/>
<path d="M7344 5506 c-10 -8 -16 -17 -13 -20 3 -3 14 3 24 14 21 23 17 26 -11
6z"/>
<path d="M6387 5459 c-30 -23 -25 -39 17 -60 13 -7 9 -1 -8 14 -28 23 -29 25
-10 34 10 6 25 8 32 6 6 -3 12 2 12 11 0 21 -9 20 -43 -5z"/>
<path d="M7279 5443 c-14 -15 -41 -43 -62 -60 -21 -18 -31 -33 -24 -33 15 0
121 109 114 116 -3 3 -15 -8 -28 -23z"/>
<path d="M6322 5433 c-4 -10 -5 -34 -2 -53 l6 -35 8 30 c13 55 14 65 6 70 -5
3 -13 -2 -18 -12z"/>
<path d="M6704 5404 c-18 -14 -18 -14 6 -3 31 14 36 19 24 19 -6 0 -19 -7 -30
-16z"/>
<path d="M5735 5405 c25 -9 145 -12 145 -4 0 5 -35 9 -77 8 -43 0 -73 -2 -68
-4z"/>
<path d="M6228 5405 c-3 -3 -25 -10 -49 -15 l-44 -9 53 5 c29 2 62 9 75 14 22
9 21 9 -4 9 -14 1 -28 -1 -31 -4z"/>
<path d="M5925 5380 c28 -12 93 -12 100 0 4 6 -17 10 -57 9 -44 0 -57 -3 -43
-9z"/>
<path d="M6058 5383 c6 -2 18 -2 25 0 6 3 1 5 -13 5 -14 0 -19 -2 -12 -5z"/>
<path d="M6630 5380 c-8 -5 -10 -10 -5 -10 6 0 17 5 25 10 8 5 11 10 5 10 -5
0 -17 -5 -25 -10z"/>
<path d="M6488 5368 c5 -5 16 -8 23 -6 8 3 3 7 -10 11 -17 4 -21 3 -13 -5z"/>
<path d="M6953 5373 c-7 -3 -13 -11 -13 -19 0 -8 -9 -23 -21 -35 -11 -11 -19
-22 -17 -25 3 -2 19 12 37 30 32 33 39 57 14 49z"/>
<path d="M6261 5335 c-11 -19 -17 -36 -13 -39 4 -2 15 13 24 35 20 48 16 50
-11 4z"/>
<path d="M6331 5314 c0 -11 3 -14 6 -6 3 7 2 16 -1 19 -3 4 -6 -2 -5 -13z"/>
<path d="M7110 5289 c-14 -12 -34 -27 -44 -35 -11 -7 -18 -16 -15 -18 3 -3 27
12 53 34 27 22 44 40 40 40 -5 -1 -20 -10 -34 -21z"/>
<path d="M6786 5265 c-11 -8 -16 -15 -10 -15 5 0 18 7 28 15 11 8 16 15 10 15
-5 0 -18 -7 -28 -15z"/>
<path d="M6246 5235 c7 -47 20 -75 36 -75 7 0 7 4 0 13 -5 6 -17 32 -26 57
l-17 45 7 -40z"/>
<path d="M6360 5256 c0 -7 71 -49 75 -44 2 2 -14 14 -36 26 -21 12 -39 21 -39
18z"/>
<path d="M6701 5229 c-13 -5 -22 -12 -19 -14 6 -6 58 12 58 20 0 7 -11 5 -39
-6z"/>
<path d="M6971 5184 c-24 -18 -40 -34 -36 -34 15 0 73 41 79 55 7 19 9 20 -43
-21z"/>
<path d="M6498 5193 c12 -2 32 -2 45 0 12 2 2 4 -23 4 -25 0 -35 -2 -22 -4z"/>
<path d="M6340 5101 c19 -17 38 -31 43 -31 6 0 -3 10 -19 22 -50 37 -60 41
-24 9z"/>
<path d="M6800 5085 c-14 -8 -20 -14 -15 -14 6 0 21 6 35 14 14 8 21 14 15 14
-5 0 -21 -6 -35 -14z"/>
<path d="M6725 5060 c-7 -12 2 -12 30 0 19 8 19 9 -2 9 -12 1 -25 -3 -28 -9z"/>
<path d="M6420 5051 c0 -10 80 -25 88 -16 8 8 0 12 -45 19 -24 3 -43 2 -43 -3z"/>
<path d="M6585 5040 c-15 -6 -6 -9 33 -9 28 -1 52 4 52 9 0 12 -57 12 -85 0z"/>
</g>
</svg>
